<svg width="1826" height="108" viewBox="0 0 1826 108" fill="155e53" xmlns="http://www.w3.org/2000/svg">
<path d="M1712.5 36.5695C1748.9 47.3695 1823.5 16.0695 1823.5 16.0695C1823.5 16.0695 1827.2 61.4695 1824 81.0695C1820.8 100.67 1805.67 105.236 1798.5 105.07C1509.67 107.07 927.6 109.87 910 105.07C905.27 103.78 894 106 889 105C888 96.5 888 86.5915 888 82.5695L887.5 16.5C903 16.5 912.75 0.499989 942.5 17.5C963.5 29.5 1025.5 18.0695 1067.5 3.06951C1103.55 -9.80387 1152.5 21.5695 1179.5 28.0695C1206.5 34.5695 1285 33.5695 1329 16.0695C1371.18 -0.706264 1432 36.5695 1476.5 40.5695C1510.1 43.5896 1566 28.0695 1609 16.0695C1652 4.06951 1667 23.0695 1712.5 36.5695Z" fill="#16A34A"/>
<path d="M112.803 36.5695C76.4032 47.3695 1.80324 16.0695 1.80324 16.0695C1.80324 16.0695 -1.89676 61.4695 1.30324 81.0695C4.50324 100.67 19.6366 105.236 26.8032 105.07C315.637 107.07 911 105.5 915.5 105.5C920 105.5 934.5 105.5 938 105C938 103 937.303 84.8165 937.303 82.5695V16.0695C921.803 16.0695 930 -0.5 877.803 20.0695C855.301 28.9372 799.803 18.0695 757.803 3.06951C721.758 -9.80387 672.803 21.5695 645.803 28.0695C618.803 34.5695 540.303 33.5695 496.303 16.0695C454.124 -0.706264 393.303 36.5695 348.803 40.5695C315.204 43.5896 259.303 28.0695 216.303 16.0695C173.303 4.06951 158.303 23.0695 112.803 36.5695Z" fill="#16A34A"/>
</svg>
